<svg xmlns="http://www.w3.org/2000/svg" xmlns:xlink="http://www.w3.org/1999/xlink" width="500" zoomAndPan="magnify" viewBox="0 0 375 374.999991" height="500" preserveAspectRatio="xMidYMid meet" version="1.0"><defs><g/><clipPath id="id1"><path d="M 63.460938 63.109375 L 311.710938 63.109375 L 311.710938 312 L 63.460938 312 Z M 63.460938 63.109375 " clip-rule="nonzero"/></clipPath><clipPath id="id2"><path d="M 54 39 L 189 39 L 189 133 L 54 133 Z M 54 39 " clip-rule="nonzero"/></clipPath><clipPath id="id3"><path d="M 37.5 73.261719 L 148.027344 9.699219 L 199.996094 100.070312 L 89.472656 163.632812 Z M 37.5 73.261719 " clip-rule="nonzero"/></clipPath><clipPath id="id4"><path d="M 37.5 73.261719 L 148.027344 9.699219 L 199.996094 100.070312 L 89.472656 163.632812 Z M 37.5 73.261719 " clip-rule="nonzero"/></clipPath></defs><g clip-path="url(#id1)"><path fill="#1a6087" d="M 311.710938 187.601562 C 311.710938 256.222656 256.148438 311.757812 187.59375 311.757812 C 119.015625 311.757812 63.460938 256.222656 63.460938 187.601562 C 63.460938 119.050781 119.015625 63.457031 187.589844 63.457031 C 256.140625 63.457031 311.710938 119.050781 311.710938 187.601562 Z M 311.710938 187.601562 " fill-opacity="1" fill-rule="nonzero"/></g><path fill="#1a6087" d="M 166.894531 143.265625 L 243.691406 187.601562 L 166.894531 231.945312 Z M 166.894531 143.265625 " fill-opacity="1" fill-rule="nonzero"/><g fill="#ffffff" fill-opacity="1"><g transform="translate(144.099605, 259.124983)"><g><path d="M 3.601562 -123.796875 C 3.398438 -119.597656 12.601562 -38.199219 13.199219 -34.199219 C 15.398438 -17.199219 16.800781 -6.199219 19.398438 -3.800781 C 23.597656 -0.398438 32 1.601562 35.800781 -1.601562 C 43.597656 -8.601562 80.996094 -99.996094 91.398438 -124.796875 C 92.597656 -127.796875 81.199219 -126.796875 76.796875 -126.195312 C 76 -126.195312 75.398438 -125.597656 75 -124.796875 C 72.199219 -117.398438 28.597656 -16.800781 29.800781 -16.597656 C 28.597656 -17.398438 19 -113.398438 18.800781 -123.796875 C 18.800781 -124.996094 17.800781 -125.996094 16.800781 -125.796875 L 5.398438 -125.597656 C 4.398438 -125.597656 3.601562 -124.796875 3.601562 -123.796875 Z M 3.601562 -123.796875 "/></g></g></g><g clip-path="url(#id2)"><g clip-path="url(#id3)"><g clip-path="url(#id4)"><path fill="#ffffff" d="M 86.988281 112.816406 L 98.535156 132.894531 L 144.734375 131.847656 L 168.871094 92.445312 L 157.324219 72.367188 L 133.183594 111.765625 Z M 92.765625 41.484375 L 54.824219 103.386719 L 127.410156 101.726562 L 158.449219 51.074219 L 178.398438 85.765625 L 188.445312 79.984375 L 165.351562 39.824219 Z M 92.765625 41.484375 " fill-opacity="1" fill-rule="nonzero"/></g></g></g></svg>